<svg width="16" height="19" viewBox="0 0 16 19" fill="none" xmlns="http://www.w3.org/2000/svg">
<path d="M8.10949 16.4905C8.5955 16.4905 8.98949 16.0965 8.98949 15.6105C8.98949 15.1245 8.5955 14.7305 8.10949 14.7305C7.62348 14.7305 7.22949 15.1245 7.22949 15.6105C7.22949 16.0965 7.62348 16.4905 8.10949 16.4905Z" fill="#08B4D0"/>
<path d="M6.92969 3.31055H9.28969" stroke="#231F20" stroke-width="1.5" stroke-linecap="round" stroke-linejoin="round"/>
<path d="M15.2197 16.01L15.2197 3C15.2197 1.89543 14.3243 1 13.2197 1L2.99973 1C1.89516 1 0.999726 1.89543 0.999726 3L0.999726 16.01C0.999726 17.1146 1.89516 18.01 2.99973 18.01H13.2197C14.3243 18.01 15.2197 17.1146 15.2197 16.01Z" stroke="#231F20" stroke-width="1.5" stroke-linecap="round" stroke-linejoin="round"/>
<path d="M8.10938 9.74043V7.19043" stroke="#08B4D0" stroke-width="1.5" stroke-linecap="round" stroke-linejoin="round"/>
<path d="M8.11004 9.73992L5.79004 8.66992" stroke="#08B4D0" stroke-width="1.5" stroke-linecap="round" stroke-linejoin="round"/>
<path d="M8.10938 9.73992L10.4194 8.66992" stroke="#08B4D0" stroke-width="1.5" stroke-linecap="round" stroke-linejoin="round"/>
<path d="M8.10969 9.74023L6.42969 11.7202" stroke="#08B4D0" stroke-width="1.5" stroke-linecap="round" stroke-linejoin="round"/>
<path d="M8.10938 9.74023L9.99937 11.8102" stroke="#08B4D0" stroke-width="1.5" stroke-linecap="round" stroke-linejoin="round"/>
</svg>
