<svg width="20" height="20" viewBox="0 0 20 20" fill="none" xmlns="http://www.w3.org/2000/svg">
<path d="M4.375 0C4.54076 0 4.69973 0.065848 4.81694 0.183058C4.93415 0.300269 5 0.45924 5 0.625V1.25H15V0.625C15 0.45924 15.0658 0.300269 15.1831 0.183058C15.3003 0.065848 15.4592 0 15.625 0C15.7908 0 15.9497 0.065848 16.0669 0.183058C16.1842 0.300269 16.25 0.45924 16.25 0.625V1.25H17.5C18.163 1.25 18.7989 1.51339 19.2678 1.98223C19.7366 2.45107 20 3.08696 20 3.75V17.5C20 18.163 19.7366 18.7989 19.2678 19.2678C18.7989 19.7366 18.163 20 17.5 20H2.5C1.83696 20 1.20107 19.7366 0.732233 19.2678C0.263392 18.7989 0 18.163 0 17.5V3.75C0 3.08696 0.263392 2.45107 0.732233 1.98223C1.20107 1.51339 1.83696 1.25 2.5 1.25H3.75V0.625C3.75 0.45924 3.81585 0.300269 3.93306 0.183058C4.05027 0.065848 4.20924 0 4.375 0V0ZM2.5 2.5C2.16848 2.5 1.85054 2.6317 1.61612 2.86612C1.3817 3.10054 1.25 3.41848 1.25 3.75V17.5C1.25 17.8315 1.3817 18.1495 1.61612 18.3839C1.85054 18.6183 2.16848 18.75 2.5 18.75H17.5C17.8315 18.75 18.1495 18.6183 18.3839 18.3839C18.6183 18.1495 18.75 17.8315 18.75 17.5V3.75C18.75 3.41848 18.6183 3.10054 18.3839 2.86612C18.1495 2.6317 17.8315 2.5 17.5 2.5H2.5Z" fill="#231F20"/>
<path d="M3.125 4.625C3.125 4.45924 3.19085 4.30027 3.30806 4.18306C3.42527 4.06585 3.58424 4 3.75 4H16.25C16.4158 4 16.5747 4.06585 16.6919 4.18306C16.8092 4.30027 16.875 4.45924 16.875 4.625V5.875C16.875 6.04076 16.8092 6.19973 16.6919 6.31694C16.5747 6.43415 16.4158 6.5 16.25 6.5H3.75C3.58424 6.5 3.42527 6.43415 3.30806 6.31694C3.19085 6.19973 3.125 6.04076 3.125 5.875V4.625Z" fill="#231F20"/>
<g clip-path="url(#clip0_4682_3567)">
<path d="M12.5938 11.1573H10.875V9.65731H10.3125C10.4866 9.42487 10.5802 9.14199 10.579 8.85158C10.579 8.4197 10.3746 8.0139 10.0456 7.79258L9.90608 7.69867L9.76653 7.79258C9.4375 8.01394 9.2332 8.41972 9.2332 8.85158C9.23203 9.14199 9.32561 9.42487 9.49975 9.65729H8.875V11.1573H7.40625C7.16598 11.1576 6.93563 11.2531 6.76574 11.423C6.59584 11.5929 6.50027 11.8233 6.5 12.0635V14.875C6.50015 15.0076 6.55288 15.1347 6.64661 15.2284C6.74035 15.3221 6.86744 15.3749 7 15.375H13C13.1326 15.3749 13.2597 15.3221 13.3534 15.2284C13.4471 15.1347 13.4999 15.0076 13.5 14.875V12.0636C13.4997 11.8233 13.4042 11.5929 13.2343 11.423C13.0644 11.2532 12.834 11.1576 12.5938 11.1573ZM9.90608 8.33661C10.0153 8.47229 10.079 8.65639 10.079 8.85159C10.079 9.04679 10.0153 9.2309 9.90608 9.36658C9.79688 9.2309 9.7332 9.04679 9.7332 8.85158C9.7332 8.65636 9.79688 8.47229 9.90608 8.33661ZM9.375 10.1573H10.375V11.1573H9.375V10.1573ZM7 12.0636C7.00012 11.9559 7.04297 11.8526 7.11912 11.7764C7.19528 11.7003 7.29854 11.6574 7.40625 11.6573H12.5938C12.7015 11.6574 12.8047 11.7003 12.8809 11.7764C12.957 11.8526 12.9999 11.9559 13 12.0636V12.557L12.6625 12.7059C12.5965 12.7349 12.5252 12.7499 12.4531 12.7499C12.3809 12.7499 12.3096 12.7349 12.2436 12.7059L11.6562 12.4467L11.0687 12.7059C11.0027 12.7349 10.9314 12.7499 10.8593 12.7499C10.7872 12.7499 10.7159 12.7349 10.6498 12.7059L10.0625 12.4467L9.475 12.7058C9.40899 12.7349 9.33766 12.7499 9.26555 12.7499C9.19343 12.7499 9.1221 12.7349 9.05609 12.7058L8.46875 12.4467L7.88136 12.7058C7.81535 12.7349 7.74402 12.7499 7.67191 12.7499C7.59979 12.7499 7.52846 12.7349 7.46245 12.7058L7 12.5018V12.0636ZM13 14.875H7V13.0483L7.26059 13.1633C7.39021 13.2203 7.53027 13.2498 7.67188 13.2498C7.81348 13.2498 7.95354 13.2203 8.08316 13.1633L8.46875 12.9932L8.85436 13.1633C8.98397 13.2203 9.12403 13.2498 9.26563 13.2498C9.40724 13.2498 9.54729 13.2203 9.67691 13.1633L10.0625 12.9932L10.4481 13.1633C10.5777 13.2203 10.7177 13.2498 10.8593 13.2498C11.0009 13.2498 11.141 13.2203 11.2706 13.1633L11.6562 12.9932L12.0418 13.1633C12.1715 13.2204 12.3115 13.2498 12.4531 13.2498C12.5947 13.2498 12.7348 13.2204 12.8644 13.1633L13.0002 13.1034L13.0003 14.875H13Z" fill="#08B4D0"/>
</g>
<defs>
<clipPath id="clip0_4682_3567">
<rect width="8" height="8" fill="white" transform="translate(6 7.625)"/>
</clipPath>
</defs>
</svg>
