<svg width="111" height="99" viewBox="0 0 111 99" fill="none" xmlns="http://www.w3.org/2000/svg">
<path d="M96.9627 79.4637H56.3242V74.2826H56.7549V79.033H96.532V33.9026H91.5879V33.4719H96.9627V79.4637Z" fill="#59B7A7"/>
<path d="M71.4997 72.8358C75.5694 72.8358 78.8685 69.5367 78.8685 65.467C78.8685 61.3973 75.5694 58.0982 71.4997 58.0982C67.43 58.0982 64.1309 61.3973 64.1309 65.467C64.1309 69.5367 67.43 72.8358 71.4997 72.8358Z" fill="#E6E6E5"/>
<path d="M50.2812 74.0414H91.8069V31.7061H85.7085V25.0393C85.7087 24.9287 85.6663 24.8223 85.5901 24.7421C85.5139 24.6619 85.4098 24.6141 85.2994 24.6086H50.2812V74.0414Z" fill="#D0EBE8"/>
<path d="M72.5642 36.7062H54.7773V37.1369H72.5642V36.7062Z" fill="#59B7A7"/>
<path d="M72.5642 41.1252H54.7773V41.5559H72.5642V41.1252Z" fill="#59B7A7"/>
<path d="M72.5642 48.6835H54.7773V49.1141H72.5642V48.6835Z" fill="#59B7A7"/>
<path d="M72.5642 53.1021H54.7773V53.5328H72.5642V53.1021Z" fill="#59B7A7"/>
<path d="M88.8319 36.7062H77.9746V37.1369H88.8319V36.7062Z" fill="#59B7A7"/>
<path d="M88.8319 41.1252H77.9746V41.5559H88.8319V41.1252Z" fill="#59B7A7"/>
<path d="M88.8319 48.6835H77.9746V49.1141H88.8319V48.6835Z" fill="#59B7A7"/>
<path d="M88.8319 53.1021H77.9746V53.5328H88.8319V53.1021Z" fill="#59B7A7"/>
<path d="M75.6239 65.3835V66.0938H68.3796V65.3835H75.6239ZM75.6239 66.9176V67.6278H68.3796V66.9176H75.6239ZM74.8853 62.7273V70H74.033L70.07 64.2898H69.9989V70H69.1183V62.7273H69.9705L73.9478 68.4517H74.0188V62.7273H74.8853Z" fill="#59B7A7"/>
<path d="M69.5798 30.9095C74.8792 30.9095 79.1752 26.6135 79.1752 21.3141C79.1752 16.0147 74.8792 11.7186 69.5798 11.7186C64.2804 11.7186 59.9844 16.0147 59.9844 21.3141C59.9844 26.6135 64.2804 30.9095 69.5798 30.9095Z" fill="#59B7A7"/>
<path d="M20.9267 26.9991C17.421 36.3964 28.6186 40.1692 28.2138 25.2291C28.1836 24.204 28.0501 23.8552 27.7142 23.6356C27.5129 23.5135 27.3403 23.3495 27.2081 23.1548C27.0758 22.9601 26.9869 22.7392 26.9476 22.5072L26.7193 18.7603C26.7193 18.7603 26.9648 18.6139 27.15 19.0618C27.5505 19.9877 31.6075 17.3391 32.3525 15.8059C32.3525 15.8059 31.685 16.7577 31.8099 17.0419C32.1585 17.8279 32.6884 18.52 33.356 19.0618H33.1794C33.6101 19.2814 33.356 17.8645 34.3164 18.1746C34.6222 18.278 34.2561 19.9791 33.6747 19.9576C33.4249 19.9576 33.7996 22.5201 33.356 23.2049C32.9124 23.8896 32.064 23.6356 32.1458 25.2678C32.3095 29.0836 35.5912 28.4376 35.5912 28.4376C35.5912 28.4376 40.2339 27.348 37.3139 23.5882C36.0779 21.9904 35.3199 19.8069 34.9926 17.4726C34.4413 13.5276 26.2326 11.1675 25.2292 19.0618C24.6219 23.9155 22.1585 23.6786 20.9267 26.9991Z" fill="#2D2D3C"/>
<path d="M110.211 97.7329H100.146V98.1635H110.211V97.7329Z" fill="#2D2D3C"/>
<path d="M100.145 97.7329H0V98.1635H100.145V97.7329Z" fill="#2D2D3C"/>
<path d="M22.6487 43.9591C22.6487 43.9591 18.2041 46.345 20.926 70.3293L15.9043 89.012L25.2112 89.5158L29.0872 73.6283C28.8418 69.6144 31.1631 57.5813 31.1631 57.5813L31.6325 44.3295" fill="#2D2D3C"/>
<path d="M27.8636 44.3292C27.8636 44.3292 25.2795 54.0668 28.8369 71.8321C29.8834 77.0562 29.4269 82.1425 29.6982 89.7137L40.0646 89.5845C40.0646 89.5845 39.3669 60.2599 39.776 55.5009C40.1593 51.0693 37.9327 44.6781 37.9327 44.6781" fill="#2D2D3C"/>
<path d="M19.0827 89.1841L18.2988 94.0249L22.485 94.0206L23.6134 89.1841" fill="white"/>
<path d="M18.0449 94.2401L18.8718 89.1495L19.2939 89.2184L18.5531 93.8094L22.3129 93.8051L23.4025 89.1366L23.8203 89.2357L22.6574 94.2358L18.0449 94.2401Z" fill="#2D2D3C"/>
<path d="M16.8516 97.8922C17.2096 97.2303 17.7471 96.6828 18.4022 96.3125C19.0574 95.9423 19.8036 95.7643 20.5554 95.7991C23.1394 95.9584 23.6132 97.8922 23.6132 97.8922H16.8516Z" fill="white"/>
<path d="M23.8814 98.129H16.5039L16.6589 97.8147C16.6589 97.7931 17.8821 95.433 20.5695 95.6053C23.2569 95.7776 23.8168 97.8405 23.8211 97.862L23.8814 98.129ZM17.2231 97.6984H23.2956C23.0631 97.1945 22.3654 96.1479 20.5307 96.036C19.8831 95.9975 19.2368 96.131 18.6574 96.4229C18.078 96.7149 17.5861 97.1549 17.2317 97.6984H17.2231Z" fill="#2D2D3C"/>
<path d="M17.4893 97.3022L17.0586 97.2332C17.4893 94.5415 18.2989 93.8826 18.3291 93.8568L18.6004 94.1927C18.6004 94.1927 17.8898 94.8172 17.4893 97.3022Z" fill="#2D2D3C"/>
<path d="M23.1365 97.3022C22.7403 94.8517 22.1977 94.3607 22.1934 94.3564L22.4561 94.0162C22.5207 94.0636 23.1365 94.5847 23.5629 97.2333L23.1365 97.3022Z" fill="#2D2D3C"/>
<path d="M33.168 89.5803L33.2498 94.2445H37.436L37.3541 89.5803" fill="white"/>
<path d="M37.6541 94.4599H33.0373L32.9512 89.5846L33.3818 89.5803L33.4594 94.0292H37.2149L37.1373 89.5846L37.568 89.5803L37.6541 94.4599Z" fill="#2D2D3C"/>
<path d="M31.8008 97.9482C32.1595 97.286 32.6978 96.7383 33.3537 96.3681C34.0095 95.9979 34.7565 95.82 35.5089 95.8551C38.0929 96.0188 38.571 97.9482 38.571 97.9482H31.8008Z" fill="white"/>
<path d="M38.8392 98.1635H31.4531L31.6082 97.8534C31.6082 97.8276 32.8356 95.4718 35.5187 95.6398C38.2018 95.8077 38.766 97.875 38.7703 97.8965L38.8392 98.1635ZM32.181 97.7329H38.2535C38.0209 97.229 37.3232 96.1867 35.4885 96.0704C34.8397 96.0322 34.1923 96.1657 33.6116 96.4576C33.0308 96.7495 32.5374 97.1894 32.181 97.7329Z" fill="#2D2D3C"/>
<path d="M32.4404 97.3582L32.0098 97.2892C32.4404 94.6406 33.0477 94.1238 33.1166 94.0721L33.375 94.421L33.2458 94.2444L33.3793 94.4166C33.3793 94.4166 32.8367 94.9076 32.4404 97.3582Z" fill="#2D2D3C"/>
<path d="M38.0936 97.3582C37.7017 94.9076 37.1547 94.421 37.1504 94.4166L37.4131 94.0721C37.482 94.1238 38.0936 94.6406 38.5199 97.2892L38.0936 97.3582Z" fill="#2D2D3C"/>
<path d="M28.1877 25.7114C27.6666 25.7114 22.7914 26.142 20.6854 29.3419C18.6827 32.3868 15.8101 38.8168 15.3105 41.9693C15.3105 41.9693 15.8058 42.2923 17.7783 42.6239C18.8421 42.8048 22.688 42.7058 22.688 42.7058L22.8603 36.6333L22.688 44.3294L37.9124 44.6783L38.3775 35.3455L37.7487 42.2105C38.6919 42.9168 41.4223 42.1847 43.4681 41.5386C43.5188 39.3537 44.0156 37.2023 44.928 35.2163C45.1649 34.7254 42.8909 29.9707 41.5989 28.4246C39.2991 25.6855 32.1241 25.7114 32.1241 25.7114C32.1241 25.7114 32.3523 27.9293 30.3411 27.9293C27.6063 27.9552 28.2825 25.7114 28.1877 25.7114Z" fill="#6B54A3"/>
<path d="M29.9111 89.7137H29.4805V55.0874L29.5278 55.0314C29.5968 54.941 31.2505 52.8996 32.9345 52.9728V53.4035C31.6123 53.3518 30.204 54.9195 29.9198 55.2425L29.9111 89.7137Z" fill="#F3F3F3"/>
<path d="M38.4916 33.4974L37.5293 44.6535L37.9584 44.6905L38.9207 33.5344L38.4916 33.4974Z" fill="#2D2D3C"/>
<path d="M37.2313 70.9968C36.7064 70.9904 36.1859 70.9003 35.6895 70.7298L35.8273 70.3206C37.6619 70.9365 38.6568 70.213 38.6999 70.1785L38.9583 70.523C38.4456 70.8561 37.8421 71.0216 37.2313 70.9968Z" fill="#F3F3F3"/>
<path d="M26.1592 56.5605H25.7285V67.7064H26.1592V56.5605Z" fill="#F3F3F3"/>
<path d="M30.5484 29.5573C27.1331 29.5573 26.9565 27.6666 26.8359 26.4177L27.2666 26.3746C27.3872 27.6666 27.525 29.1266 30.5484 29.1266C31.6681 29.1266 32.495 28.8424 33.0118 28.2911C33.3887 27.8719 33.5933 27.3258 33.5846 26.7622L34.0153 26.7321C34.0344 27.4154 33.7873 28.0794 33.3262 28.584C32.7276 29.2214 31.793 29.5573 30.5484 29.5573Z" fill="#2D2D3C"/>
<path d="M22.6582 33.1466L22.4824 44.3385L22.913 44.3452L23.0889 33.1534L22.6582 33.1466Z" fill="#2D2D3C"/>
<path d="M30.0399 25.0566C27.486 25.0566 26.7495 22.5931 26.7409 22.5673V22.5199L26.6289 20.3019L27.0596 20.2804L27.1716 22.4682C27.3795 23.1761 27.8397 23.7831 28.4651 24.1744C29.0906 24.5657 29.8378 24.7141 30.5653 24.5915C31.2856 24.5465 31.9653 24.2421 32.4784 23.7345C32.9915 23.2269 33.3033 22.5506 33.356 21.8308L33.425 19.9574H33.8556L33.7867 21.8437C33.7249 22.6614 33.3735 23.4302 32.7957 24.012C32.2178 24.5938 31.4514 24.9504 30.6342 25.0178C30.4371 25.0438 30.2386 25.0567 30.0399 25.0566Z" fill="#2D2D3C"/>
<path d="M33.6357 20.3191C33.5572 20.3197 33.4789 20.3095 33.4031 20.2889L33.5108 19.8583C33.5755 19.8823 33.646 19.8862 33.7129 19.8692C33.7798 19.8523 33.84 19.8154 33.8855 19.7635C33.9988 19.5784 34.0709 19.371 34.097 19.1555C34.123 18.9399 34.1023 18.7213 34.0362 18.5146C34.0208 18.453 33.992 18.3955 33.9518 18.3464C33.9116 18.2972 33.861 18.2576 33.8037 18.2303C33.6898 18.2106 33.5726 18.2353 33.4764 18.2992L33.2266 17.9461C33.3282 17.8771 33.4432 17.83 33.564 17.8077C33.6848 17.7855 33.809 17.7886 33.9286 17.8168C34.0506 17.8608 34.1605 17.9328 34.2495 18.0271C34.3386 18.1213 34.4042 18.2352 34.4411 18.3595C34.5352 18.6407 34.5628 18.9399 34.5217 19.2336C34.4806 19.5273 34.3719 19.8075 34.2042 20.0521C34.1346 20.1353 34.0477 20.2023 33.9495 20.2484C33.8513 20.2945 33.7442 20.3186 33.6357 20.3191Z" fill="#2D2D3C"/>
<path d="M21.6165 52.3613L21.582 51.9306C23.6493 51.7713 23.9163 50.2079 23.9292 50.1261L24.3599 50.1864C24.3513 50.2079 24.0369 52.1718 21.6165 52.3613Z" fill="#F3F3F3"/>
<path d="M39.7449 52.2494C37.3246 52.0642 37.0102 50.096 37.0059 50.096L37.4365 50.0314C37.4365 50.1004 37.7165 51.6766 39.7837 51.836L39.7449 52.2494Z" fill="#F3F3F3"/>
<path d="M26.3282 43.6144L26.3066 43.1837C35.269 42.7746 37.5343 35.6727 37.5559 35.6038L37.9865 35.7287C37.9435 35.8062 35.5877 43.1966 26.3282 43.6144Z" fill="#2D2D3C"/>
<path d="M35.4313 43.709L35.0781 43.4334C35.8161 42.5313 36.3983 41.5124 36.8008 40.4186L37.2315 40.5435C36.819 41.6949 36.2099 42.7659 35.4313 43.709Z" fill="#2D2D3C"/>
<path d="M22.111 42.7186C22.0292 42.8823 20.9741 45.5223 19.1609 45.9142C18.6183 46.0772 18.0363 46.0498 17.5114 45.8367C16.6802 45.4448 15.9782 44.1657 15.6638 43.1837C15.1772 41.6678 14.3718 28.5623 14.3718 28.5623C14.3718 28.5623 13.4028 24.1565 14.1048 23.6225C14.8068 23.0885 14.9661 24.1092 14.9661 23.924C14.9337 23.8078 14.922 23.6868 14.9317 23.5665C14.9877 23.2047 16.0644 23.0152 16.0385 23.5148C16.0274 23.6511 16.0526 23.7878 16.1117 23.9111C16.1677 23.967 16.1117 23.5321 16.1117 23.4804C16.1505 23.0842 17.1583 23.2823 17.1109 23.7991C17.1109 24.0273 16.8697 25.3452 17.0678 24.8112C17.4038 23.8938 17.2272 20.5432 17.8 21.0341C18.3728 21.5251 18.0067 25.1557 18.1617 25.1299C18.1617 25.1299 18.7475 23.1746 18.937 23.5277C19.1578 23.9934 19.2555 24.508 19.2208 25.0222C19.1861 25.5364 19.0202 26.0331 18.7388 26.465C18.3623 26.9739 18.1101 27.5638 18.0024 28.1877L17.8517 28.7475C17.8172 30.0137 18.8551 34.6348 18.9154 35.845C18.9154 35.845 19.4495 40.6385 18.6656 41.7022L18.5537 42.443" fill="white"/>
<path d="M18.3515 46.2331C18.0292 46.2318 17.7113 46.1582 17.4213 46.0177C16.5599 45.5871 15.8149 44.3209 15.466 43.2356C14.9707 41.7067 14.174 29.0965 14.174 28.5582C13.9457 27.5289 13.2394 24.006 13.9931 23.4461C14.0851 23.36 14.1969 23.298 14.3186 23.2657C14.4404 23.2334 14.5683 23.2317 14.6908 23.2609C14.7407 23.2727 14.7876 23.2947 14.8286 23.3255C14.9465 23.2032 15.0909 23.1097 15.2508 23.0522C15.4106 22.9947 15.5815 22.9747 15.7503 22.9939C15.8856 23.0044 16.0147 23.0554 16.1206 23.1403C16.2502 23.0633 16.4017 23.0315 16.5513 23.0499C16.7464 23.0707 16.9324 23.1435 17.0897 23.2609C17.0897 23.1446 17.0897 23.0283 17.1112 22.9164C17.2102 21.4779 17.2792 20.918 17.5936 20.7888C17.6557 20.7637 17.7239 20.7572 17.7897 20.7702C17.8555 20.7832 17.916 20.8151 17.9639 20.862C18.3688 21.2109 18.3946 22.4383 18.3688 23.9241C18.6401 23.2867 18.7994 23.2695 18.877 23.2609C18.9331 23.256 18.9895 23.2687 19.0381 23.2972C19.0867 23.3258 19.1252 23.3688 19.1483 23.4202C19.3875 23.92 19.4941 24.4729 19.4579 25.0257C19.4217 25.5786 19.2439 26.1128 18.9416 26.5771C18.6426 26.9554 18.4348 27.3975 18.3343 27.8691C18.3042 27.9854 18.2783 28.106 18.2266 28.2567L18.0544 28.7821C18.1704 30.1509 18.3688 31.5115 18.6487 32.8563C18.877 34.1096 19.0794 35.2939 19.1181 35.8323C19.1569 36.3706 19.6263 40.6128 18.8597 41.7842L18.7521 42.4776L18.3214 42.413L18.442 41.6162L18.4721 41.5732C19.0751 40.7592 18.8253 37.1803 18.6789 35.8667C18.653 35.3456 18.442 34.1742 18.218 32.9338C17.9238 31.5506 17.7223 30.1492 17.6151 28.7391V28.6788L17.796 28.1232C17.8433 27.9854 17.8649 27.8734 17.8907 27.7701C18.0082 27.2556 18.2376 26.7732 18.5626 26.3574C18.8019 25.9956 18.9528 25.5825 19.0029 25.1515C19.053 24.7206 19.001 24.2839 18.8511 23.8768C18.6594 24.3075 18.4968 24.7507 18.3645 25.2032L18.3257 25.3324L18.0931 25.3669L18.0113 25.298C17.895 25.1989 17.895 25.0783 17.9123 24.1696C17.9123 23.4159 17.9639 21.7148 17.7184 21.2798C17.6045 21.833 17.5382 22.3949 17.5203 22.9594C17.5063 23.6111 17.4226 24.2593 17.2705 24.8932C17.2361 24.9879 17.1543 25.2032 16.9475 25.1559C16.7408 25.1085 16.7365 24.9405 16.8571 24.0706C16.8571 23.9457 16.8916 23.838 16.8959 23.7906C16.8959 23.6744 16.7882 23.5968 16.715 23.5624C16.6566 23.5275 16.5913 23.5056 16.5237 23.4981C16.4561 23.4907 16.3876 23.4979 16.3231 23.5193C16.3284 23.5449 16.3284 23.5713 16.3231 23.5968C16.3446 23.8897 16.3532 24.049 16.1939 24.1222L16.056 24.1825L15.9398 24.0749C15.7847 23.9241 15.8019 23.5193 15.8019 23.515C15.8019 23.5107 15.8019 23.4676 15.7072 23.4504C15.6042 23.4297 15.4979 23.4337 15.3968 23.4622C15.2957 23.4906 15.2028 23.5427 15.1258 23.6141C15.1116 23.6837 15.1116 23.7554 15.1258 23.8251C15.1303 23.8637 15.1303 23.9027 15.1258 23.9414V24.1222L14.764 24.1998L14.6865 23.9887C14.6865 23.9241 14.5961 23.7217 14.4884 23.6873C14.4306 23.6852 14.3729 23.6948 14.3189 23.7156C14.2649 23.7363 14.2156 23.7677 14.174 23.8078C13.8079 24.0792 14.0706 26.4651 14.5228 28.5151C14.5228 28.6831 15.3325 41.6421 15.8149 43.1193C16.125 44.084 16.8011 45.2727 17.5376 45.6431C18.0204 45.8382 18.5558 45.861 19.0535 45.7077C20.5006 45.3933 21.4739 43.4854 21.8271 42.6929V42.6413L22.219 42.8221L22.1975 42.8652C21.8228 43.7266 20.7633 45.7852 19.1224 46.1383C18.8693 46.1956 18.611 46.2274 18.3515 46.2331Z" fill="#2D2D3C"/>
<path d="M39.214 41.2802C38.828 41.2895 38.4426 41.246 38.0684 41.1511L38.1889 40.7204C38.1889 40.7204 40.2476 41.2932 43.0814 39.7255L43.2924 40.1045C42.0548 40.8363 40.6512 41.241 39.214 41.2802Z" fill="#2D2D3C"/>
<path d="M85.7139 24.6688L91.8079 31.1289V32.1324H85.3478V24.8497C85.3463 24.8066 85.3572 24.764 85.3793 24.727C85.4014 24.69 85.4337 24.6601 85.4724 24.641C85.5111 24.6219 85.5544 24.6144 85.5972 24.6193C85.6401 24.6243 85.6806 24.6414 85.7139 24.6688Z" fill="#59B7A7"/>
<path d="M52.5251 11.0511H40.505L37.5635 13.8591L37.529 11.0511H35.9872C35.665 11.05 35.356 10.9227 35.1265 10.6965C34.8971 10.4702 34.7654 10.1631 34.7598 9.84092V1.22743C34.7609 0.902242 34.8906 0.590707 35.1205 0.360766C35.3505 0.130825 35.662 0.00113503 35.9872 0H52.5251C52.8499 0.00113961 53.161 0.130966 53.3902 0.361029C53.6195 0.591092 53.7482 0.902637 53.7482 1.22743V9.84092C53.7437 10.1627 53.613 10.4699 53.3842 10.6962C53.1554 10.9226 52.8469 11.05 52.5251 11.0511Z" fill="#DACAE3"/>
<path d="M40.2263 6.63227C40.7234 6.63227 41.1264 6.22928 41.1264 5.73216C41.1264 5.23505 40.7234 4.83205 40.2263 4.83205C39.7292 4.83205 39.3262 5.23505 39.3262 5.73216C39.3262 6.22928 39.7292 6.63227 40.2263 6.63227Z" fill="white"/>
<path d="M44.2556 6.63227C44.7527 6.63227 45.1557 6.22928 45.1557 5.73216C45.1557 5.23505 44.7527 4.83205 44.2556 4.83205C43.7585 4.83205 43.3555 5.23505 43.3555 5.73216C43.3555 6.22928 43.7585 6.63227 44.2556 6.63227Z" fill="white"/>
<path d="M48.2829 6.63227C48.78 6.63227 49.183 6.22928 49.183 5.73216C49.183 5.23505 48.78 4.83205 48.2829 4.83205C47.7858 4.83205 47.3828 5.23505 47.3828 5.73216C47.3828 6.22928 47.7858 6.63227 48.2829 6.63227Z" fill="white"/>
<path d="M73.8347 16.7548L65.0215 25.5679L65.326 25.8725L74.1392 17.0593L73.8347 16.7548Z" fill="white"/>
<path d="M65.326 16.7546L65.0215 17.0592L73.8347 25.8724L74.1392 25.5678L65.326 16.7546Z" fill="white"/>
<path d="M29.6078 2.03687H10.5332V2.46755H29.6078V2.03687Z" fill="#59B7A7"/>
<path d="M20.098 7.20076H1.02344V7.63143H20.098V7.20076Z" fill="#59B7A7"/>
<path d="M103.459 87.8749H85.332V88.3055H103.459V87.8749Z" fill="#59B7A7"/>
<path d="M110.205 93.0043H92.0781V93.4349H110.205V93.0043Z" fill="#59B7A7"/>
<path d="M27.0953 21.314C27.0953 21.314 25.7645 21.202 25.7344 20.0219C25.7344 19.2553 26.1306 18.6868 27.2676 18.8117" fill="white"/>
<path d="M27.0769 21.5295C26.5515 21.4864 25.548 21.0988 25.5179 20.0351C25.5023 19.8334 25.53 19.6307 25.5991 19.4405C25.6682 19.2504 25.777 19.0772 25.9184 18.9325C26.1108 18.7846 26.3322 18.679 26.5682 18.6226C26.8042 18.5662 27.0495 18.5602 27.2879 18.6052L27.2406 19.0359C27.0632 18.9982 26.8799 18.9983 26.7025 19.0362C26.5252 19.074 26.3578 19.1487 26.2113 19.2555C26.1148 19.3586 26.0414 19.481 25.9961 19.6147C25.9508 19.7484 25.9346 19.8903 25.9486 20.0308C25.9744 20.9912 27.064 21.0988 27.1114 21.1031L27.0769 21.5295Z" fill="#2D2D3C"/>
<path d="M41.775 37.6927L42.3306 38.4421C42.3306 38.4421 48.9027 32.6064 48.9414 32.4815C49.1869 31.7451 50.1128 29.6305 50.8148 29.1438C51.1766 28.8983 50.8364 30.7114 50.7545 30.6167C50.7545 30.6167 54.0018 28.36 54.6048 28.4892C55.2077 28.6184 52.9854 30.2119 52.9854 30.2119C52.9854 30.2119 56.6376 28.8983 56.4567 29.3721C56.2758 29.8458 53.063 31.0948 53.063 31.0948C53.063 31.0948 56.6892 30.186 56.6892 30.621C56.6892 30.9354 53.5625 32.0121 53.5625 32.0121C53.5625 32.0121 56.7022 31.7321 55.9657 32.2576C55.2293 32.783 51.603 33.9803 51.1034 34.7426C50.6038 35.5049 43.7819 43.636 42.0592 43.8901C40.1944 44.1657 38.9541 41.9434 38.9541 41.9434L38.8593 39.7599L38.7129 39.1268" fill="white"/>
<path d="M41.7552 44.1485C39.9723 44.1485 38.8396 42.1588 38.7879 42.0683C38.7703 42.0399 38.7613 42.007 38.7621 41.9736L38.6673 39.7901L38.5252 39.2001C38.5122 39.1447 38.5217 39.0864 38.5516 39.038C38.5814 38.9896 38.6292 38.9549 38.6845 38.9416C38.712 38.934 38.7408 38.9321 38.769 38.9361C38.7972 38.9401 38.8243 38.9498 38.8486 38.9648C38.8729 38.9798 38.8938 38.9996 38.91 39.023C38.9262 39.0465 38.9375 39.073 38.9429 39.101L39.0937 39.7341L39.1884 41.8875C39.3693 42.1846 40.4805 43.9159 42.0481 43.6834C43.6158 43.4508 50.3127 35.5738 50.9243 34.6392C51.2473 34.1525 52.4446 33.6142 54.1027 32.9165C54.7444 32.6409 55.356 32.3825 55.6919 32.193C54.9941 32.1533 54.2943 32.1677 53.5988 32.236C53.5417 32.248 53.4822 32.2368 53.4333 32.2049C53.3844 32.173 53.3502 32.123 53.3382 32.0659C53.3263 32.0088 53.3374 31.9493 53.3693 31.9004C53.4012 31.8515 53.4512 31.8174 53.5084 31.8054C54.4413 31.4966 55.3546 31.1313 56.2431 30.7114C55.1926 30.8324 54.152 31.0281 53.1294 31.2972C53.0768 31.3089 53.0217 31.3005 52.975 31.2736C52.9283 31.2466 52.8934 31.2032 52.8772 31.1518C52.861 31.1004 52.8646 31.0448 52.8874 30.996C52.9101 30.9472 52.9504 30.9086 53.0002 30.888C54.026 30.5022 55.0221 30.0416 55.9804 29.5099C54.995 29.749 54.0244 30.0453 53.0734 30.3971C53.0253 30.4124 52.9733 30.4103 52.9266 30.3912C52.8799 30.372 52.8413 30.3371 52.8177 30.2925C52.7941 30.2479 52.787 30.1964 52.7975 30.147C52.808 30.0976 52.8355 30.0535 52.8753 30.0224C53.4385 29.6341 53.9595 29.1881 54.43 28.6916C53.883 28.838 52.2766 29.7984 50.9415 30.733L50.92 30.7588C50.8739 30.7927 50.8171 30.8087 50.7601 30.804C50.7031 30.7992 50.6498 30.774 50.6099 30.733C50.5885 30.7111 50.5723 30.6845 50.5626 30.6554C50.5529 30.6263 50.5499 30.5954 50.5539 30.565C50.5608 30.5139 50.5852 30.4668 50.6228 30.4315C50.7116 30.1111 50.7636 29.7817 50.7779 29.4496C50.1922 30.0611 49.4256 31.7278 49.1629 32.5246C49.137 32.5935 49.1026 32.7012 42.4874 38.554C42.4652 38.5738 42.4393 38.5889 42.4112 38.5985C42.3831 38.6081 42.3534 38.612 42.3237 38.61C42.2644 38.6014 42.2105 38.5706 42.173 38.5239L41.6045 37.8348C41.5702 37.7891 41.5555 37.7317 41.5636 37.6752C41.5717 37.6186 41.6019 37.5676 41.6476 37.5333C41.6937 37.5002 41.7508 37.4861 41.807 37.4941C41.8632 37.5022 41.9141 37.5316 41.9491 37.5764L42.3797 38.1363C44.8604 35.9312 48.435 32.7356 48.7666 32.3868C48.9906 31.7322 49.9294 29.5185 50.709 28.9801C50.7389 28.9569 50.7732 28.9399 50.8098 28.9299C50.8463 28.92 50.8845 28.9173 50.9221 28.9221C50.9597 28.9269 50.996 28.9391 51.0289 28.9579C51.0618 28.9767 51.0906 29.0018 51.1138 29.0318C51.2274 29.3818 51.2379 29.7571 51.144 30.1128C52.2034 29.3979 54.1199 28.1705 54.6669 28.2911C54.7312 28.3014 54.7909 28.3307 54.8385 28.3752C54.8861 28.4197 54.9193 28.4774 54.9339 28.5409C54.9813 28.7605 54.7186 29.118 54.1544 29.6089C56.3422 28.894 56.536 29.0921 56.6135 29.1782C56.6518 29.2163 56.6776 29.2651 56.6876 29.3181C56.6976 29.3712 56.6913 29.426 56.6695 29.4754C56.5705 29.7295 55.9331 30.0999 55.1966 30.4573C55.9546 30.3281 56.6135 30.2765 56.8073 30.4315C56.8427 30.458 56.8713 30.4925 56.8907 30.5322C56.9102 30.5719 56.92 30.6156 56.9193 30.6598C56.9193 30.7847 56.9193 31.0302 55.0286 31.7537H55.0717C56.1785 31.7537 56.2518 31.9604 56.2905 32.0595C56.3293 32.1585 56.325 32.3136 56.1053 32.4901C55.5208 32.823 54.9118 33.111 54.2836 33.3515C53.138 33.8381 51.5703 34.5014 51.299 34.9191C50.8683 35.5522 43.9775 43.8858 42.1256 44.1571C42.0021 44.1633 41.8783 44.1604 41.7552 44.1485Z" fill="#2D2D3C"/>
<path d="M24.5032 72.8187L20.502 87.0455L20.9154 87.1618L24.9167 72.935L24.5032 72.8187Z" fill="#F3F3F3"/>
</svg>
