<svg width="100" height="100" viewBox="0 0 100 100" fill="none" xmlns="http://www.w3.org/2000/svg">
<path d="M50 100C77.6142 100 100 77.6142 100 50C100 22.3858 77.6142 0 50 0C22.3858 0 0 22.3858 0 50C0 77.6142 22.3858 100 50 100Z" fill="#F2F2F2"/>
<path d="M49.2357 80.0527C66.3508 80.0527 80.2254 66.1782 80.2254 49.0631C80.2254 31.948 66.3508 18.0735 49.2357 18.0735C32.1206 18.0735 18.2461 31.948 18.2461 49.0631C18.2461 66.1782 32.1206 80.0527 49.2357 80.0527Z" fill="#D9C9E2"/>
<path d="M34.9378 47.0802C36.6056 47.0802 37.9576 45.7282 37.9576 44.0604C37.9576 42.3926 36.6056 41.0405 34.9378 41.0405C33.27 41.0405 31.918 42.3926 31.918 44.0604C31.918 45.7282 33.27 47.0802 34.9378 47.0802Z" fill="#6B54A2" stroke="#6B54A2" stroke-miterlimit="10"/>
<path d="M63.5257 47.0802C65.1935 47.0802 66.5455 45.7282 66.5455 44.0604C66.5455 42.3926 65.1935 41.0405 63.5257 41.0405C61.8579 41.0405 60.5059 42.3926 60.5059 44.0604C60.5059 45.7282 61.8579 47.0802 63.5257 47.0802Z" fill="#6B54A2" stroke="#6B54A2" stroke-miterlimit="10"/>
<path d="M35.7285 62.0339C37.2178 59.82 39.2289 58.0066 41.5845 56.7535C43.9401 55.5003 46.5678 54.846 49.2359 54.8481C51.9027 54.8467 54.5289 55.5014 56.8829 56.7545C59.2369 58.0077 61.2463 59.8207 62.7342 62.0339" stroke="#6B54A2" stroke-width="2" stroke-linecap="round" stroke-linejoin="round"/>
<path d="M72.9764 37.4841C70.9378 37.4697 68.9875 36.6497 67.5511 35.2031C66.1146 33.7564 65.3085 31.8004 65.3086 29.7617" stroke="#6B54A2" stroke-width="2" stroke-linecap="round" stroke-linejoin="round"/>
<path d="M26.1406 37.4841C28.1872 37.4817 30.1491 36.667 31.5953 35.2191C33.0416 33.7711 33.8539 31.8083 33.8539 29.7617" stroke="#6B54A2" stroke-width="2" stroke-linecap="round" stroke-linejoin="round"/>
<path d="M75.9316 17.3914L85.546 9.12329" stroke="#82D0D7" stroke-width="2" stroke-linecap="round" stroke-linejoin="round"/>
<path d="M6.93945 19.2832L17.9364 25.5866" stroke="#82D0D7" stroke-width="2" stroke-linecap="round" stroke-linejoin="round"/>
<path d="M6.93945 48.5538L13.4521 45.6067" stroke="#82D0D7" stroke-width="2" stroke-linecap="round" stroke-linejoin="round"/>
<path d="M95.4879 48.5538L88.9844 45.6067" stroke="#82D0D7" stroke-width="2" stroke-linecap="round" stroke-linejoin="round"/>
</svg>
