<svg width="345" height="345" viewBox="0 0 345 345" fill="none" xmlns="http://www.w3.org/2000/svg">
<g filter="url(#filter0_f_4682_4491)">
<circle cx="172.499" cy="172.5" r="71.96" fill="#4A4A4A" fill-opacity="0.5"/>
</g>
<path d="M172.5 301C243.469 301 301 243.469 301 172.5C301 101.531 243.469 44 172.5 44C101.531 44 44 101.531 44 172.5C44 243.469 101.531 301 172.5 301Z" fill="#F2F2F2"/>
<path d="M249.057 167.286C250.955 167.286 252.494 165.747 252.494 163.849C252.494 161.951 250.955 160.413 249.057 160.413C247.16 160.413 245.621 161.951 245.621 163.849C245.621 165.747 247.16 167.286 249.057 167.286Z" fill="#E6DDED"/>
<path d="M250.858 158.076C249.9 156.673 248.941 155.247 247.983 153.868C245.515 150.205 244.234 145.871 244.313 141.455C244.373 137.546 244.13 133.639 243.588 129.767C243.275 127.62 242.434 125.584 241.141 123.842C239.848 122.1 238.142 120.706 236.178 119.785C232.818 118.174 229.341 116.822 225.775 115.741C220.87 114.185 216.603 111.075 213.62 106.882C212.053 104.708 210.347 102.651 208.711 100.523C206.862 97.8173 204.165 95.8038 201.046 94.8006C197.926 93.7974 194.561 93.8616 191.482 94.9831C188.911 95.7545 186.316 96.3857 183.768 97.2038C178.753 98.828 173.354 98.828 168.339 97.2038C164.472 95.7659 160.458 94.7547 156.371 94.1883C154.409 94.0104 152.433 94.2798 150.591 94.9762C148.748 95.6727 147.088 96.778 145.735 98.209C143.055 100.989 140.608 103.983 138.418 107.162C135.661 111.022 131.76 113.917 127.267 115.437C124.719 116.326 122.194 117.214 119.693 118.172C111.511 121.235 108.496 125.489 108.215 134.255C108.215 137.061 108.052 139.889 107.958 142.694C107.726 147.309 106.096 151.745 103.283 155.411C101.12 158.287 99.1598 161.31 97.4155 164.458C96.2412 166.59 95.6489 168.993 95.6982 171.426C95.7474 173.86 96.4365 176.237 97.696 178.32C99.0264 180.802 100.592 183.15 102.371 185.333C106.53 190.561 108.634 197.129 108.286 203.8C108.223 206.408 108.348 209.018 108.66 211.608C108.841 213.995 109.654 216.292 111.013 218.263C112.372 220.235 114.23 221.81 116.397 222.829C119.78 224.39 123.263 225.726 126.823 226.826C131.614 228.41 135.768 231.491 138.675 235.615C140.617 238.333 142.7 240.947 144.916 243.447C146.648 245.565 148.972 247.117 151.592 247.904C154.212 248.692 157.008 248.678 159.62 247.865C162.776 247.023 165.932 246.158 168.971 245.223C173.691 243.763 178.743 243.763 183.464 245.223C187.119 246.446 190.852 247.422 194.638 248.145C196.742 248.553 198.914 248.426 200.956 247.776C202.998 247.127 204.844 245.976 206.326 244.428C209.073 241.617 211.583 238.583 213.83 235.358C216.683 231.408 220.694 228.442 225.308 226.873C228.818 225.775 232.26 224.472 235.617 222.969C238.045 221.863 240.115 220.098 241.59 217.875C243.065 215.652 243.887 213.059 243.962 210.392C244.336 206.231 244.102 202.047 244.547 197.863C244.968 194.274 246.286 190.849 248.38 187.904C249.689 185.956 251.022 184.016 252.378 182.084C254.549 179.128 256.013 175.713 256.655 172.102V170.536C255.767 165.972 253.776 161.695 250.858 158.076Z" fill="#59B6A6"/>
<path d="M268.624 128.178C270.522 128.178 272.06 126.64 272.06 124.742C272.06 122.844 270.522 121.306 268.624 121.306C266.726 121.306 265.188 122.844 265.188 124.742C265.188 126.64 266.726 128.178 268.624 128.178Z" fill="#59B6A6" stroke="#59B6A6" stroke-miterlimit="10"/>
<path opacity="0.23" d="M126.822 226.804C131.831 228.42 136.195 231.589 139.282 235.851C141.607 239.25 144.296 242.385 147.3 245.201C148.784 246.492 150.542 247.43 152.441 247.944C154.34 248.458 156.331 248.536 158.264 248.17C162.065 247.484 165.802 246.484 169.437 245.178C173.977 243.643 178.885 243.577 183.463 244.991C186.035 245.762 188.606 246.51 191.178 247.329C199.64 249.666 204.549 247.936 209.879 240.994C211.585 238.656 213.315 236.529 215.021 234.308C217.882 230.693 221.769 228.028 226.172 226.664C229.61 225.599 232.968 224.294 236.224 222.76C238.431 221.736 240.329 220.149 241.728 218.159C243.127 216.169 243.978 213.846 244.195 211.422C244.603 208.637 244.744 205.819 244.616 203.007C244.291 196.338 246.429 189.781 250.624 184.586C252.197 182.497 253.627 180.302 254.902 178.018C256.131 175.953 256.79 173.599 256.81 171.196C256.831 168.793 256.213 166.428 255.018 164.342C253.199 161.091 251.16 157.967 248.917 154.992C245.94 150.927 244.365 146.004 244.429 140.966C244.429 137.623 244.289 134.304 243.938 130.984V130.587C245.785 167.335 237.393 190.524 212.123 211.89C177.666 240.83 124.274 225.963 126.822 226.804Z" fill="#CFEAE7"/>
<path d="M83.6465 271.337H120.114H123.55" stroke="#59B6A6" stroke-miterlimit="10"/>
<path d="M61.3457 257.169H97.8362H101.249" stroke="#59B6A6" stroke-miterlimit="10"/>
<path d="M239.1 75.8389H275.567H279.003" stroke="#59B6A6" stroke-miterlimit="10"/>
<path d="M216.797 61.6713H253.287H256.7" stroke="#59B6A6" stroke-miterlimit="10"/>
<path d="M216.798 270.939C220.607 270.939 223.694 267.851 223.694 264.043C223.694 260.234 220.607 257.147 216.798 257.147C212.99 257.147 209.902 260.234 209.902 264.043C209.902 267.851 212.99 270.939 216.798 270.939Z" fill="#E6DDED"/>
<path d="M68.241 206.958C70.1388 206.958 71.6773 205.419 71.6773 203.521C71.6773 201.623 70.1388 200.085 68.241 200.085C66.3432 200.085 64.8047 201.623 64.8047 203.521C64.8047 205.419 66.3432 206.958 68.241 206.958Z" stroke="#59B6A6" stroke-width="0.5" stroke-miterlimit="10"/>
<path d="M259.04 221.589C260.938 221.589 262.476 220.051 262.476 218.153C262.476 216.255 260.938 214.717 259.04 214.717C257.142 214.717 255.604 216.255 255.604 218.153C255.604 220.051 257.142 221.589 259.04 221.589Z" stroke="#E6DDED" stroke-miterlimit="10"/>
<path d="M86.7787 69.1755C89.7997 69.1755 92.2487 66.7265 92.2487 63.7054C92.2487 60.6844 89.7997 58.2354 86.7787 58.2354C83.7576 58.2354 81.3086 60.6844 81.3086 63.7054C81.3086 66.7265 83.7576 69.1755 86.7787 69.1755Z" fill="#E6DDED"/>
<path d="M81.3085 118.033C82.5608 118.033 83.576 117.018 83.576 115.766C83.576 114.513 82.5608 113.498 81.3085 113.498C80.0562 113.498 79.041 114.513 79.041 115.766C79.041 117.018 80.0562 118.033 81.3085 118.033Z" fill="#62C7D2"/>
<path d="M142.531 172.01L160.718 190.197L209.925 140.99" stroke="white" stroke-width="4" stroke-linecap="round" stroke-linejoin="round"/>
<path opacity="0.2" d="M142.531 177.339L160.718 195.525L209.925 146.318" stroke="white" stroke-width="7" stroke-linecap="round" stroke-linejoin="round"/>
<path d="M119.693 118.174C111.511 121.259 108.496 125.49 108.215 134.256C108.215 137.085 108.052 139.89 107.958 142.695C107.731 147.311 106.1 151.748 103.283 155.412C101.126 158.292 99.1652 161.314 97.4155 164.459C96.2412 166.591 95.6489 168.994 95.6982 171.427C95.7474 173.861 96.4365 176.238 97.696 178.321C99.0274 180.802 100.593 183.151 102.371 185.334M244.406 141.386C244.467 137.477 244.225 133.57 243.682 129.698C243.368 127.551 242.528 125.515 241.234 123.773C239.941 122.031 238.236 120.637 236.271 119.716C232.916 118.095 229.438 116.743 225.869 115.672C220.962 114.106 216.696 110.989 213.713 106.789C212.147 104.615 210.44 102.558 208.804 100.431C206.953 97.728 204.256 95.717 201.137 94.7141C198.019 93.7112 194.655 93.7733 191.576 94.8907C189.004 95.6621 186.409 96.2932 183.861 97.1114C178.847 98.7355 173.448 98.7355 168.433 97.1114C164.531 95.6987 160.486 94.7188 156.371 94.1894C154.409 94.0115 152.433 94.2809 150.591 94.9773C148.748 95.6738 147.088 96.7791 145.735 98.2101M159.62 247.819C162.776 246.977 165.932 246.112 168.971 245.177C173.691 243.717 178.743 243.717 183.464 245.177C187.119 246.408 190.852 247.392 194.638 248.123C196.744 248.519 198.915 248.384 200.955 247.731C202.996 247.078 204.842 245.927 206.326 244.383C209.073 241.572 211.583 238.538 213.83 235.313C216.681 231.365 220.694 228.407 225.308 226.85C228.817 225.761 232.26 224.465 235.617 222.97C238.042 221.866 240.109 220.105 241.584 217.886C243.059 215.667 243.883 213.08 243.962 210.417C244.336 206.232 244.102 202.048 244.547 197.887C244.964 194.297 246.282 190.871 248.38 187.929C249.689 185.965 251.022 184.025 252.378 182.108C254.541 179.148 256.004 175.735 256.655 172.126V170.56" stroke="#43897D" stroke-linecap="round" stroke-linejoin="round"/>
<defs>
<filter id="filter0_f_4682_4491" x="0.539062" y="0.540039" width="343.92" height="343.92" filterUnits="userSpaceOnUse" color-interpolation-filters="sRGB">
<feFlood flood-opacity="0" result="BackgroundImageFix"/>
<feBlend mode="normal" in="SourceGraphic" in2="BackgroundImageFix" result="shape"/>
<feGaussianBlur stdDeviation="50" result="effect1_foregroundBlur_4682_4491"/>
</filter>
</defs>
</svg>
