<svg width="111" height="108" viewBox="0 0 111 108" fill="none" xmlns="http://www.w3.org/2000/svg">
<g opacity="0.3">
<path d="M100.822 107.493C115.53 79.1877 99.9553 50.6919 82.4121 55.1015C80.7687 48.4675 75.5656 44.2617 66.265 45.8833C58.998 47.1364 56.2923 53.714 56.8387 55.5481C56.8387 55.5481 51.2583 39.4705 31.5861 44.0492C25.8714 45.376 19.9918 49.816 16.3149 56.5887C11.0728 66.2536 16.3149 76.5644 16.3149 76.5644C16.3149 76.5644 7.17477 79.1443 5.86532 88.627C4.52118 98.3742 12.0137 107.74 21.8303 107.493H100.822Z" fill="#C9EAF1"/>
</g>
<path d="M7.45273 84.6552L7.0625 84.4645C10.709 76.9806 17.356 76.1568 18.6221 76.0788C18.7088 73.9108 20.0747 71.9076 22.3163 70.6458C24.7575 69.2757 27.5715 69.1456 29.4837 70.3076L29.2582 70.6805C27.4761 69.5922 24.8355 69.7309 22.5288 71.0274C20.3608 72.2458 19.0601 74.2143 19.0601 76.2869V76.4993H18.8389C18.7652 76.5037 11.3551 76.6511 7.45273 84.6552Z" fill="#59B7A7"/>
<path d="M74.9302 107.779H74.4966C74.4715 106.97 74.6356 106.166 74.9759 105.431C75.3161 104.696 75.8231 104.051 76.4565 103.547C77.0092 103.151 77.6464 102.89 78.3177 102.783C78.989 102.676 79.6759 102.727 80.3241 102.931C80.3425 102.403 80.4721 101.884 80.7045 101.409C80.9368 100.934 81.2667 100.513 81.6726 100.174C82.2283 99.7421 82.8696 99.4342 83.5538 99.2704C84.238 99.1067 84.9492 99.0908 85.64 99.224C86.529 99.3624 87.3472 99.7908 87.9675 100.442C88.5878 101.094 88.9753 101.932 89.0697 102.827C89.0705 102.84 89.0745 102.852 89.0813 102.863C89.0882 102.873 89.0976 102.882 89.1088 102.888C89.12 102.894 89.1327 102.898 89.1456 102.898C89.1586 102.898 89.1713 102.894 89.1825 102.888C89.8182 102.529 90.5407 102.354 91.27 102.381C91.9993 102.407 92.7069 102.635 93.3146 103.04C95.4479 104.41 95.049 107.406 95.0143 107.532L94.5807 107.471C94.5807 107.441 94.971 104.622 93.0762 103.404C92.5328 103.042 91.8997 102.839 91.2475 102.816C90.5952 102.793 89.9494 102.951 89.3819 103.274C89.3068 103.312 89.2235 103.332 89.1391 103.332C89.0547 103.332 88.9715 103.312 88.8963 103.274C88.8232 103.233 88.761 103.175 88.715 103.104C88.669 103.034 88.6404 102.954 88.6318 102.871C88.5499 102.069 88.2032 101.317 87.6465 100.735C87.0898 100.152 86.3548 99.7715 85.5576 99.6533C84.9285 99.533 84.2811 99.5482 83.6583 99.6977C83.0355 99.8472 82.4517 100.128 81.9458 100.52C81.5544 100.853 81.2431 101.27 81.0351 101.74C80.8272 102.21 80.7279 102.721 80.7447 103.235V103.53L80.4629 103.443C79.8465 103.212 79.1832 103.133 78.5299 103.215C77.8766 103.296 77.2529 103.535 76.7123 103.911C76.1359 104.374 75.6749 104.964 75.3657 105.635C75.0564 106.306 74.9073 107.04 74.9302 107.779V107.779Z" fill="#59B7A7"/>
<path d="M33.6894 37.5666C33.6894 37.5666 36.2129 36.5693 36.9934 38.3904C37.2185 38.9173 37.3041 39.4933 37.2418 40.063C37.1795 40.6326 36.9715 41.1765 36.6378 41.6423L30.251 49.5034L24.2891 45.5273C24.2891 45.5273 29.7437 39.0668 33.6894 37.5666Z" fill="#6B54A3"/>
<path d="M42.9434 36.0447C42.9434 36.0447 46.9584 34.4447 49.0484 37.779C50.2153 39.7417 51.2035 41.8052 52.0011 43.9447L48.2809 45.8829" fill="#6B54A3"/>
<path d="M43.2165 35.7674C43.2165 35.7674 48.45 45.4149 48.2765 47.7042C48.1031 49.9936 46.7937 55.2011 46.7937 55.2011H32.6064L33.3869 53.3496L32.2812 46.9888L33.4043 37.7186C33.4043 37.7186 34.4275 37.1549 35.6503 36.5912C36.3868 36.2724 37.1733 36.0845 37.9743 36.0362C37.9743 36.0362 40.3938 38.2519 43.2165 35.7674Z" fill="#6B54A3"/>
<path d="M110.957 107.562H100.824V107.995H110.957V107.562Z" fill="#2D2D3C"/>
<path d="M100.824 107.562H0V107.995H100.824V107.562Z" fill="#2D2D3C"/>
<path d="M23.8228 101.036C23.8228 101.036 23.6754 102.649 22.9556 103.174C22.5373 103.507 22.2164 103.946 22.0264 104.446C21.8365 104.946 21.7845 105.487 21.8759 106.014C21.9019 106.196 35.2306 107.584 35.1829 107.224C34.9141 105.117 28.7441 104.189 28.7441 104.189C28.1934 103.985 29.3728 101.782 29.3728 101.782" fill="white"/>
<path d="M34.7052 107.497C33.2743 107.497 29.2766 107.111 27.9715 106.981C21.6974 106.356 21.6844 106.244 21.6584 106.04C21.562 105.475 21.6208 104.894 21.8285 104.359C22.0362 103.825 22.385 103.357 22.8377 103.005C23.3537 102.623 23.5705 101.444 23.6095 101.023L24.0431 101.062C24.0431 101.132 23.8784 102.797 23.1022 103.356C22.7265 103.645 22.4337 104.028 22.2533 104.467C22.0729 104.905 22.0112 105.384 22.0746 105.853C23.28 106.096 33.4044 107.154 34.9263 107.067C34.4234 105.585 30.3172 104.639 28.7086 104.397H28.6696C28.6122 104.376 28.5602 104.342 28.5174 104.299C28.4746 104.255 28.4422 104.203 28.4224 104.145C28.2056 103.581 28.9471 102.12 29.1812 101.682L29.5628 101.89C29.0772 102.801 28.7303 103.781 28.8213 103.985C29.6625 104.115 35.1215 105.051 35.399 107.206C35.399 107.28 35.399 107.458 35.0954 107.492C34.9656 107.502 34.8352 107.504 34.7052 107.497V107.497Z" fill="#2D2D3C"/>
<path d="M29.6358 104.18C29.6358 104.18 28.7206 104.974 29.5404 106.379Z" fill="white"/>
<path d="M29.348 106.509C28.4501 104.969 29.4781 104.045 29.4912 104.037L29.7774 104.362L29.6343 104.201L29.7774 104.362C29.7471 104.392 29.0097 105.069 29.7254 106.292L29.348 106.509Z" fill="#2D2D3C"/>
<path d="M40.723 101.466C40.723 101.466 40.5755 103.079 39.8558 103.603C38.4683 104.631 38.2081 107.163 38.2341 107.345C38.2601 107.527 52.1091 108.013 52.0658 107.653C51.797 105.546 45.6269 104.618 45.6269 104.618C45.0762 104.414 46.2556 102.212 46.2556 102.212" fill="white"/>
<path d="M49.7468 108C48.7191 108 47.2579 107.978 45.1637 107.918C43.3339 107.866 38.5167 107.696 38.1741 107.553L38.0571 107.506L38.031 107.371C38.005 107.18 38.2565 104.527 39.7394 103.43C40.2554 103.048 40.4678 101.869 40.5069 101.448L40.9405 101.487C40.9405 101.557 40.7757 103.222 39.9952 103.781C38.8549 104.627 38.521 106.586 38.469 107.172C39.8738 107.337 50.3538 107.709 51.828 107.51C51.3511 106.014 47.2189 105.069 45.6059 104.822H45.5626C45.5069 104.799 45.4565 104.765 45.4147 104.722C45.3729 104.678 45.3406 104.627 45.3198 104.57C45.103 104.007 45.8444 102.545 46.0785 102.107L46.4601 102.316C45.9745 103.226 45.6276 104.206 45.7187 104.41C46.5555 104.54 52.0188 105.476 52.2963 107.631V107.757L52.1879 107.853C52.1359 107.892 51.9928 108 49.7468 108Z" fill="#2D2D3C"/>
<path d="M46.5382 104.609C46.5382 104.609 45.6229 105.403 46.4427 106.808Z" fill="white"/>
<path d="M46.2523 106.917C45.3544 105.377 46.3824 104.453 46.3955 104.445L46.6774 104.77L46.5386 104.61L46.6817 104.77C46.647 104.8 45.914 105.477 46.6297 106.7L46.2523 106.917Z" fill="#2D2D3C"/>
<path d="M47.1138 99.3152L46.2683 102.203C46.2683 102.203 43.0511 102.398 40.7227 101.466L41.2907 99.2589" fill="white"/>
<path d="M45.5008 102.437C43.8495 102.469 42.2056 102.209 40.6446 101.67L40.4668 101.596L41.0825 99.2068L41.5161 99.3152L40.9958 101.336C42.947 102.056 45.4791 102.017 46.1165 101.995L46.9187 99.2502L47.3523 99.3759L46.4851 102.411H46.3333C46.2423 102.424 45.9518 102.437 45.5008 102.437Z" fill="#2D2D3C"/>
<path d="M41.873 33.4826C41.5785 33.4872 41.2852 33.4417 41.0059 33.3482L41.1663 32.9449C41.2357 32.9753 42.944 33.5996 44.2752 31.5834C45.6063 29.5672 42.0291 24.9971 41.9945 24.9538L42.3327 24.6849C42.4888 24.8801 46.157 29.5152 44.6394 31.8219C43.7332 33.2007 42.6232 33.4826 41.873 33.4826Z" fill="#2D2D3C"/>
<path d="M41.7716 24.2512C41.7716 24.2512 35.6623 22.0312 34.3745 27.8977C34.3745 27.8977 31.1182 27.1606 30.8754 29.7232C30.6326 32.2857 32.7485 32.1773 32.7485 32.1773C31.8753 34.0662 30.7041 35.8025 29.2798 37.3197C27.1595 39.44 28.5383 41.2221 28.5383 41.2221C28.5383 41.2221 34.3268 36.1837 37.917 36.0363C39.1484 34.8049 37.8303 32.8667 37.8303 32.8667L38.0167 31.5963C38.0167 31.5963 37.1799 31.5312 37.0281 30.9546C36.859 30.3042 37.1278 29.6234 37.9647 29.6234C37.9647 29.6234 38.3983 30.1307 38.8796 29.7969C39.4302 29.4066 40.0416 28.0972 40.3321 27.0609C40.2584 27.2907 40.6313 25.4826 40.6313 25.4826C41.4481 25.8766 42.3144 26.1581 43.2068 26.3194C43.2068 26.3194 42.4567 24.403 41.7716 24.2512Z" fill="#2D2D3C"/>
<path d="M40.6458 37.1028C39.6408 37.0764 38.6619 36.7766 37.8145 36.2356L38.0399 35.8627C41.0274 37.6405 42.675 36.0622 42.9916 35.711L42.7271 33.0834L43.1607 33.04L43.4425 35.8454L43.3905 35.9104C43.0448 36.2938 42.6209 36.5985 42.1474 36.8042C41.674 37.0099 41.1619 37.1117 40.6458 37.1028V37.1028Z" fill="#2D2D3C"/>
<path d="M30.4222 49.6426L30.084 49.3694L36.4708 41.4997C36.7834 41.0653 36.9778 40.5572 37.0348 40.0251C37.0918 39.493 37.0095 38.9552 36.796 38.4645L37.1949 38.2911C37.4368 38.8531 37.5284 39.4684 37.4607 40.0765C37.3931 40.6846 37.1685 41.2647 36.809 41.7598L30.4222 49.6426Z" fill="#2D2D3C"/>
<path d="M24.2897 45.8832C24.2897 45.8832 22.5163 47.2317 23.8561 48.9183C25.1959 50.605 30.7936 57.7853 30.7936 57.7853C30.7936 57.7853 30.7633 63.3007 31.3313 63.2747C31.8993 63.2486 31.9687 60.9072 31.9687 60.9072C31.9687 60.9072 32.9616 64.2242 33.031 63.2747C33.1004 62.3251 33.031 58.8997 33.031 58.8997C33.031 58.8997 33.9675 61.111 34.167 59.988C34.5312 57.9631 33.9719 57.2997 33.1741 56.58C32.0684 55.5784 28.8381 49.4863 28.8381 49.4863L29.3541 48.875" fill="white"/>
<path d="M32.931 63.6823C32.7835 63.6823 32.5797 63.5479 32.0638 62.0563C31.9597 62.7978 31.7472 63.4915 31.3093 63.5088C31.2649 63.5126 31.2202 63.506 31.1788 63.4894C31.1374 63.4728 31.1004 63.4468 31.0708 63.4135C30.5852 62.9322 30.5462 59.1512 30.5462 57.8765C30.0085 57.187 24.9442 50.6701 23.6781 49.0702C23.4774 48.8401 23.3262 48.5714 23.2337 48.2805C23.1412 47.9896 23.1094 47.6828 23.1404 47.3791C23.261 46.7197 23.6169 46.1265 24.142 45.7098L24.4065 46.0567C23.9873 46.4105 23.705 46.8998 23.6087 47.4398C23.5853 47.6836 23.6116 47.9296 23.6862 48.1629C23.7607 48.3962 23.8819 48.6119 24.0423 48.797C25.3777 50.4837 30.9017 57.599 30.9798 57.6727L31.0275 57.729V57.8071C31.0275 60.0228 31.1445 62.5766 31.383 63.0449C31.5565 62.8498 31.7386 61.8829 31.7689 60.9203L31.8079 59.5805L32.1938 60.8813C32.402 61.575 32.6578 62.3425 32.8529 62.8281C32.8876 61.5533 32.8529 58.9691 32.8529 58.9258V57.7941L33.2865 58.839C33.4593 59.2816 33.6959 59.6965 33.9889 60.0704C33.9889 60.0444 33.9889 60.0141 33.9889 59.9707C34.3315 58.0716 33.8415 57.4689 33.0654 56.7621C31.9424 55.7475 28.8075 49.8593 28.6731 49.6122L28.6037 49.4821L29.2151 48.758L29.5489 49.0355L29.1153 49.5341C29.5923 50.4013 32.3673 55.5567 33.3472 56.4413C34.1797 57.1957 34.7867 57.9372 34.4095 60.0444C34.3531 60.3523 34.2274 60.5214 34.0323 60.5431C33.8372 60.5647 33.564 60.3479 33.2908 59.8927C33.2908 60.981 33.3212 62.6807 33.2908 63.3137C33.2908 63.5435 33.1868 63.6693 33.035 63.6823H32.931Z" fill="#2D2D3C"/>
<path d="M46.969 55.418H32.2832L33.1504 53.3237L32.0664 47.028L32.5 46.9542L33.6057 53.3758L32.9249 54.9844H46.6178C46.839 54.0825 47.9186 49.7032 48.053 47.687C48.2178 45.519 46.0281 42.1067 46.0065 42.072L46.3707 41.8335C46.4661 41.9766 48.6644 45.3846 48.4866 47.7174C48.3088 50.0501 47.0514 55.0408 46.9994 55.2532L46.969 55.418Z" fill="#2D2D3C"/>
<path d="M46.793 55.201C46.793 55.201 50.4916 69.0327 50.2618 72.6488C50.032 76.265 48.2673 99.3149 48.2673 99.3149H38.9883C38.9883 99.3149 41.9151 81.3814 41.256 78.524C40.597 75.6667 41.8197 66.1102 40.2848 67.7883C38.7499 69.4663 32.8096 98.5518 32.8096 98.5518L22.7676 98.8813L32.6058 55.201" fill="#2D2D3C"/>
<path d="M51.1002 44.4135L51.6595 45.1679C51.6595 45.1679 58.2979 39.3014 58.2979 39.167C58.545 38.4255 59.4772 36.2966 60.184 35.811C60.5482 35.5595 60.2057 37.3849 60.1233 37.2895C60.1233 37.2895 63.3926 35.0175 63.9996 35.1519C64.6067 35.2863 62.3693 36.8863 62.3693 36.8863C62.3693 36.8863 66.0462 35.5595 65.8381 36.0191C65.6299 36.4787 62.4257 37.7535 62.4257 37.7535C62.4257 37.7535 66.0765 36.8429 66.0765 37.2765C66.0765 37.5974 62.9286 38.677 62.9286 38.677C62.9286 38.677 66.0896 38.3952 65.3481 38.9242C64.6067 39.4531 60.9558 40.6585 60.4528 41.4303C59.9499 42.2021 53.0817 50.3797 51.369 50.6355C49.4916 50.913 48.2428 48.6757 48.2428 48.6757L48.1474 46.4817L48 45.8443" fill="white"/>
<path d="M51.0779 50.9172C49.2829 50.9172 48.1425 48.914 48.0905 48.8229C48.0739 48.7938 48.065 48.761 48.0645 48.7275L47.9691 46.5292L47.826 45.9309C47.8127 45.8734 47.8229 45.813 47.8542 45.763C47.8855 45.7129 47.9354 45.6774 47.9929 45.6642C48.0504 45.651 48.1108 45.6611 48.1608 45.6924C48.2108 45.7237 48.2463 45.7736 48.2596 45.8311L48.4113 46.4685L48.5067 48.6365C48.6888 48.9313 49.8075 50.6744 51.3858 50.4446C52.9641 50.2148 59.7065 42.2757 60.3222 41.3391C60.643 40.8491 61.8484 40.3115 63.5178 39.6047C64.1681 39.3316 64.7838 39.0671 65.1177 38.8806C64.4108 38.8411 63.7019 38.8571 62.9974 38.9283C62.945 38.9337 62.8924 38.9193 62.8499 38.8881C62.8075 38.8568 62.7781 38.8109 62.7676 38.7592C62.7563 38.707 62.7647 38.6525 62.7911 38.6061C62.8175 38.5597 62.8601 38.5247 62.9107 38.5077C63.8495 38.1972 64.7689 37.8309 65.664 37.4107C64.6057 37.5278 63.5577 37.7249 62.5292 38.0004C62.4753 38.0119 62.4191 38.0032 62.3711 37.976C62.3232 37.9489 62.2869 37.9051 62.269 37.853C62.2523 37.8006 62.2565 37.7438 62.2807 37.6945C62.305 37.6452 62.3474 37.6072 62.3991 37.5885C63.4309 37.1962 64.4336 36.7311 65.3996 36.1967C64.4069 36.4371 63.4296 36.7369 62.4728 37.0942C62.4236 37.1116 62.3697 37.1107 62.3211 37.0916C62.2725 37.0724 62.2325 37.0364 62.2083 36.9901C62.1828 36.9441 62.1754 36.8901 62.1874 36.8389C62.1994 36.7876 62.23 36.7426 62.2733 36.7126C62.8403 36.3218 63.3649 35.8727 63.8386 35.3728C63.2879 35.5203 61.6706 36.4872 60.3265 37.4281C60.3265 37.4281 60.3265 37.4497 60.3048 37.4541C60.2581 37.4894 60.2 37.5062 60.1416 37.5014C60.0832 37.4966 60.0286 37.4705 59.9883 37.4281C59.968 37.4053 59.9528 37.3784 59.9438 37.3492C59.9349 37.32 59.9323 37.2892 59.9363 37.259C59.9413 37.2069 59.9661 37.1588 60.0056 37.1246C60.095 36.802 60.1474 36.4703 60.1617 36.136C59.572 36.7517 58.8002 38.4297 58.5358 39.2318C58.5097 39.3055 58.4751 39.4139 51.815 45.3282C51.7925 45.3474 51.7663 45.362 51.738 45.3709C51.7096 45.3799 51.6798 45.383 51.6503 45.3802C51.6203 45.3773 51.5912 45.3681 51.5651 45.3532C51.5389 45.3382 51.5162 45.3179 51.4985 45.2935L50.9262 44.5434C50.9055 44.521 50.8898 44.4945 50.8801 44.4656C50.8704 44.4367 50.8669 44.4061 50.8698 44.3758C50.8727 44.3455 50.8819 44.3161 50.8969 44.2896C50.9119 44.2631 50.9324 44.24 50.9569 44.2219C50.9814 44.2038 51.0095 44.1911 51.0392 44.1846C51.069 44.1781 51.0998 44.1779 51.1296 44.1841C51.1594 44.1903 51.1876 44.2027 51.2124 44.2206C51.2371 44.2384 51.2578 44.2612 51.2731 44.2875L51.7066 44.8512C54.2041 42.6269 57.803 39.4096 58.1368 39.0584C58.3623 38.3993 59.3076 36.1707 60.0924 35.633C60.1221 35.6085 60.1565 35.5903 60.1934 35.5796C60.2304 35.569 60.2692 35.566 60.3074 35.5708C60.3456 35.5757 60.3824 35.5883 60.4155 35.608C60.4486 35.6276 60.4773 35.6538 60.4999 35.685C60.6142 36.0359 60.6247 36.4123 60.5303 36.769C61.5969 36.0492 63.5308 34.8178 64.0771 34.9392C64.1415 34.9488 64.2015 34.9775 64.2495 35.0215C64.2974 35.0656 64.331 35.123 64.3459 35.1864C64.3936 35.4119 64.1291 35.7717 63.5611 36.2617C65.7594 35.5463 65.9589 35.7457 66.0369 35.8281C66.0751 35.8657 66.1009 35.9141 66.111 35.9668C66.1211 36.0194 66.1149 36.0739 66.0933 36.123C65.9936 36.3831 65.3519 36.756 64.6061 37.1116C65.3735 36.9815 66.0369 36.9338 66.2321 37.0855C66.2677 37.1122 66.2964 37.147 66.316 37.1869C66.3356 37.2268 66.3455 37.2709 66.3448 37.3153C66.3448 37.4454 66.3448 37.6882 64.4413 38.421C65.6033 38.421 65.6727 38.6248 65.7117 38.7245C65.7508 38.8243 65.7464 38.9803 65.5253 39.1581C64.9366 39.4957 64.3218 39.7857 63.6869 40.0253C62.5378 40.5153 60.9595 41.1873 60.6864 41.6036C60.2528 42.241 53.3153 50.631 51.4508 50.9042C51.3272 50.9198 51.2024 50.9242 51.0779 50.9172V50.9172Z" fill="#2D2D3C"/>
<path d="M85.6136 31.1061H54.4295C54.0708 31.1025 53.7192 31.0052 53.4096 30.824C53.1001 30.6428 52.8432 30.3838 52.6645 30.0728C52.4857 29.7618 52.3913 29.4094 52.3906 29.0507C52.3899 28.692 52.4829 28.3393 52.6604 28.0276L68.2698 1.02766C68.4502 0.715212 68.7096 0.455753 69.0221 0.275363C69.3345 0.0949728 69.6889 0 70.0497 0C70.4105 0 70.7649 0.0949728 71.0773 0.275363C71.3898 0.455753 71.6492 0.715212 71.8296 1.02766L87.439 28.0276C87.619 28.3402 87.7137 28.6946 87.7137 29.0553C87.7137 29.416 87.6189 29.7704 87.4389 30.083C87.2589 30.3956 87 30.6554 86.688 30.8365C86.376 31.0175 86.022 31.1135 85.6613 31.1148L85.6136 31.1061ZM70.0042 0.424954C69.7185 0.423219 69.4375 0.497372 69.19 0.639832C68.9424 0.782292 68.737 0.987947 68.595 1.23577L53.0073 28.2357C52.8652 28.4826 52.7906 28.7624 52.7907 29.0473C52.7908 29.3321 52.8658 29.6119 53.008 29.8586C53.1503 30.1054 53.3548 30.3104 53.6013 30.4533C53.8477 30.5961 54.1273 30.6717 54.4121 30.6725H85.6136C85.8984 30.6717 86.178 30.5961 86.4244 30.4533C86.6708 30.3104 86.8754 30.1054 87.0177 29.8586C87.1599 29.6119 87.2349 29.3321 87.235 29.0473C87.2351 28.7624 87.1604 28.4826 87.0184 28.2357L71.4307 1.23577C71.2876 0.985048 71.0796 0.777467 70.8286 0.634804C70.5776 0.492141 70.2928 0.419656 70.0042 0.424954V0.424954Z" fill="#DACAE3"/>
<path d="M71.7681 9.18381L70.1335 21.5239C70.1198 21.6141 70.0742 21.6964 70.005 21.7559C69.9358 21.8154 69.8475 21.8481 69.7563 21.8481C69.665 21.8481 69.5768 21.8154 69.5076 21.7559C69.4383 21.6964 69.3928 21.6141 69.379 21.5239L68.269 9.13611C68.2534 8.97161 68.2722 8.80565 68.3243 8.64883C68.3763 8.49201 68.4606 8.34779 68.5716 8.22537C68.6826 8.10296 68.8179 8.00504 68.9689 7.93788C69.1198 7.87072 69.2832 7.83579 69.4484 7.83533H70.5974C70.7667 7.83554 70.9339 7.87205 71.0878 7.94238C71.2418 8.01271 71.3788 8.11523 71.4898 8.24303C71.6008 8.37083 71.683 8.52093 71.731 8.68322C71.779 8.84551 71.7917 9.01622 71.7681 9.18381V9.18381Z" fill="#6B54A3"/>
<path d="M69.9938 27.7072C70.8846 27.7072 71.6068 26.9851 71.6068 26.0942C71.6068 25.2034 70.8846 24.4813 69.9938 24.4813C69.103 24.4813 68.3809 25.2034 68.3809 26.0942C68.3809 26.9851 69.103 27.7072 69.9938 27.7072Z" fill="#6B54A3"/>
<path d="M44.1328 95.4995L43.6992 95.4388C43.968 93.5007 46.3398 76.4951 46.6823 75.8534C47.3241 74.648 47.8574 73.1738 46.9165 71.357C46.7152 70.8644 46.5471 70.3589 46.4135 69.8438L46.8471 69.7224C46.9773 70.2084 47.1366 70.6862 47.3241 71.1532C48.3647 73.1651 47.7577 74.8301 47.0856 76.0572C46.8168 76.6165 45.1734 87.9897 44.1328 95.4995Z" fill="#F3F3F3"/>
<path d="M45.8163 67.7971C44.8927 64.5799 43.722 60.2743 43.709 60.2309L44.1426 60.1182C44.1426 60.1615 45.322 64.4541 46.2455 67.6801L45.8163 67.7971Z" fill="#F3F3F3"/>
<path d="M41.8953 12.3922H22.6914V12.8258H41.8953V12.3922Z" fill="#59B7A7"/>
<path d="M32.3152 17.5912H13.1113V18.0248H32.3152V17.5912Z" fill="#59B7A7"/>
<path d="M98.6512 82.9729H79.4473V83.4065H98.6512V82.9729Z" fill="#59B7A7"/>
<path d="M86.0047 88.8999H66.8008V89.3335H86.0047V88.8999Z" fill="#59B7A7"/>
<path d="M91.6839 66.7261L91.2503 66.6654C91.9007 61.9609 88.51 59.3377 85.4098 58.5269C83.7611 58.1478 82.0354 58.2902 80.4712 58.9345L80.1677 59.0732V58.7393C80.1677 56.1378 77.9563 53.5752 74.8301 52.4782C71.3874 51.2729 68.0444 52.1444 65.8851 54.811L65.5469 54.5378C68.2308 51.2252 72.1765 51.0907 74.9732 52.0707C78.1948 53.198 80.4148 55.7215 80.6099 58.4185C82.1855 57.8257 83.9022 57.717 85.5399 58.1063C88.7875 58.9648 92.369 61.7355 91.6839 66.7261Z" fill="#59B7A7"/>
<path d="M106.223 79.8944C106.08 76.2219 104.697 70.9841 102.924 67.4459L103.314 67.2508C105.135 70.8973 106.51 76.0875 106.657 79.8771L106.223 79.8944Z" fill="#59B7A7"/>
<path d="M30.5993 98.6258L29.3679 101.774C29.3679 101.774 26.1507 101.969 23.8223 101.037L24.3946 98.8295" fill="white"/>
<path d="M28.6004 102.008C26.9492 102.039 25.3052 101.779 23.7442 101.24L23.5664 101.166L24.1821 98.7774L24.6157 98.8858L24.0954 100.906C26.0596 101.63 28.6134 101.587 29.2291 101.561L30.4129 98.5259L30.8161 98.682L29.5153 101.96H29.3766C29.3419 101.99 29.0514 102.008 28.6004 102.008Z" fill="#2D2D3C"/>
<path d="M86.875 33.1834H83.8789V32.7498H86.8837C87.4421 32.7507 87.991 32.6043 88.4747 32.3253C88.9585 32.0463 89.36 31.6446 89.6389 31.1608C89.9178 30.677 90.064 30.1281 90.0629 29.5697C90.0619 29.0113 89.9135 28.463 89.6327 27.9803L88.0024 25.1532L88.3753 24.9364L90.0099 27.7635C90.3266 28.312 90.4933 28.9343 90.4932 29.5677C90.4932 30.2012 90.3263 30.8234 90.0094 31.3719C89.6926 31.9203 89.2369 32.3757 88.6882 32.6922C88.1395 33.0086 87.5171 33.1751 86.8837 33.1747L86.875 33.1834Z" fill="#DACAE3"/>
<path d="M74.2885 0.585271L73.916 0.807159L82.9802 16.0245L83.3527 15.8026L74.2885 0.585271Z" fill="#DACAE3"/>
<path d="M65.1004 11.7281L56.0957 27.3121L56.4711 27.529L65.4758 11.945L65.1004 11.7281Z" fill="#DACAE3"/>
</svg>
